<svg id="Layer_1" data-name="Layer 1" xmlns="http://www.w3.org/2000/svg" viewBox="0 0 420.08 44.32"><path d="M38.57,0V25.4q0,8.58-5.09,13.74c-3.39,3.45-8.11,5.18-14.2,5.18S8.42,42.59,5.06,39.14,0,31.12,0,25.4V0H10.41V25.22a10.47,10.47,0,0,0,2.27,7c1.52,1.79,3.73,2.67,6.63,2.67s5.12-.88,6.63-2.67a10.42,10.42,0,0,0,2.27-7V0Z" fill="#fff"/><path d="M65.84,29.18H58.4V43.44H48.22V0H69.93A14.75,14.75,0,0,1,81.07,4.48,14.38,14.38,0,0,1,83,22.55a13.77,13.77,0,0,1-6.54,5.33L86.94,43.44H75.11Zm-7.48-9H69.14a6.28,6.28,0,0,0,4.42-1.6,5.11,5.11,0,0,0,1.73-3.91,5.05,5.05,0,0,0-1.67-3.81,5.65,5.65,0,0,0-4-1.61H58.4Z" fill="#fff"/><path d="M125.09,20.74c4.51,2.21,6.75,5.63,6.75,10.29a11.07,11.07,0,0,1-4.06,9.11c-2.69,2.18-6.42,3.27-11.14,3.27H94.33V0h21.19q6.63,0,10.72,3.27a10.43,10.43,0,0,1,4.08,8.57,9.59,9.59,0,0,1-5.2,8.9ZM104.38,8.9v8.69h11.14a4.54,4.54,0,0,0,3.36-1.3,4.34,4.34,0,0,0,1.33-3.18A4.05,4.05,0,0,0,118.88,10a4.57,4.57,0,0,0-3.36-1.18Zm15.89,24.46a4.33,4.33,0,0,0,1.33-3.24,4.24,4.24,0,0,0-1.3-3.27,5.18,5.18,0,0,0-3.66-1.21H104.38v9h12.26A5,5,0,0,0,120.27,33.36Z" fill="#fff"/><path d="M167.59,35.15H149.24l-3.06,8.29H135.59L151.63,0h13.53l16.05,43.41h-10.6Zm-3.3-9L158.41,9.9l-5.9,16.26Z" fill="#fff"/><path d="M225.59,0V43.44h-8.36L197.71,18.59V43.44h-10.3V0h8.36L215.3,24.92V0Z" fill="#fff"/><path d="M276.93,0,260,43.44h-11.3L231.79,0H243.2l11.15,30.21L265.58,0Z" fill="#00f388"/><path d="M322.22,0,306.05,27.82V43.44H295.64V27.82L279.38,0H291l9.87,17.74L310.68,0Z" fill="#00f388"/><path d="M351.73,35.15H333.38l-3.05,8.29h-10.6L335.78,0h13.53l16,43.41H354.76Zm-3.3-9L342.56,9.9l-5.91,16.26Z" fill="#00f388"/><path d="M402.25,34v9.41H371.56V0h10.29V34Z" fill="#00f388"/><path d="M409.67,0h10.41V43.44H409.67Z" fill="#00f388"/></svg>