<?xml version="1.0" encoding="utf-8"?>
<!-- Generator: Adobe Illustrator 24.1.0, SVG Export Plug-In . SVG Version: 6.00 Build 0)  -->
<svg version="1.1" id="Layer_1" xmlns="http://www.w3.org/2000/svg" xmlns:xlink="http://www.w3.org/1999/xlink" x="0px" y="0px"
	 viewBox="0 0 350.6 350.4" style="enable-background:new 0 0 350.6 350.4;" xml:space="preserve">
<style type="text/css">
	.st0{fill:#010101;}
	.st1{fill:#020202;}
</style>
<g>
	<path d="M-566.1,350.4c-78.9,0-157.7,0-236.6,0c-0.3-0.1-0.6-0.3-1-0.3c-29.2-3.5-56.4-31.6-56.2-65.7
		c0.5-72.7,0.2-145.4,0.2-218.1c0-3.4,0.1-6.8,0.6-10.2c4.1-31,32-56,63.3-56C-721.6,0-647.3,0-573,0.1c18.3,0,33.5,7.6,46.1,20.7
		c9.8,10.2,15.5,22.4,17.6,36.3c0,78.9,0,157.7,0,236.6c-0.1,0.6-0.3,1.1-0.4,1.7c-2.4,15.4-9.7,28-21.1,38.5
		C-540.9,343-552.7,348.3-566.1,350.4z M-594.5,117.5c4.3-3.3,8.2-6.7,11.5-10.7c3.3-4.1,6-8.6,7.3-13.8c-4.3,2-8.4,3.9-12.6,5.6
		c-4.2,1.6-8.6,2.9-13,4c-2.4,0.6-4,0-5.8-1.6c-21.9-20.3-56.2-15.9-72.4,9.3c-6.5,10-8.5,21-6.8,32.7c0.4,2.9-0.1,4.4-3.4,3.9
		c-0.6-0.1-1.1,0-1.7-0.1c-36.4-3.9-66.9-19.3-91.1-46.7c-2.1-2.4-3-2-4.2,0.6c-3.7,8.1-5,16.4-4.2,25.3c1.1,13,6.5,23.5,16.7,31.7
		c0.9,0.7,2.2,1.2,2.5,2.6c-0.7,0.7-1.5,0.4-2.3,0.4c-5.8-0.3-11.2-2-16.5-4.2c-2.1-0.9-3-0.7-2.6,1.8c0.3,1.9,0.2,3.9,0.7,5.8
		c4.3,18.2,15.5,30.2,33.1,36.4c1.3,0.5,2.9,0.4,4.3,2.2c-5.1,1.2-9.6,2.2-14.5,1.4c-4-0.7-4.6,0.1-3,3.5
		c7.8,16,20.1,25.8,38.1,27.9c1.2,0.1,3-0.2,3.4,1.1c0.4,1.3-1.4,1.9-2.4,2.6c-16.4,11.8-34.7,17.9-54.9,18c-3,0-6-0.4-9.5,0.4
		c5.7,3.6,11,6.3,16.6,8.6c23.2,10,47.3,12.9,72.2,9.7c21.6-2.7,41.8-9.4,59.1-22.4c38.6-28.8,58.3-67.5,57.9-116
		c0-1.8,0.5-3.1,1.9-4.1c1.3-0.9,2.6-1.9,3.8-3c6.3-5.4,12.1-11.2,17.2-19C-577.9,114.6-585.9,117.1-594.5,117.5z"/>
</g>
<g>
	<path class="st0" d="M-96,28.1C-108.5,15-123.7,7.5-142,7.4c-30.7,0-61.4-0.1-92.1-0.1c-13,0-26,0-39.1,0c-30.6,0-61.1,0-91.7,0.1
		c-31.2,0.1-59.2,25-63.3,56c-0.5,3.4-0.6,6.8-0.6,10.2c0,32.8,0.1,65.5,0.1,98.3c-0.2,3.1-0.3,6.1-0.3,9.2c0,3.3,0.1,6.6,0.3,9.9
		c0,33.6,0,67.1-0.3,100.7c-0.2,34.1,27,62.2,56.2,65.7c0.3,0,0.6,0.2,1,0.3c78.9,0,157.7,0,236.6,0c13.4-2.1,25.2-7.4,35.3-16.7
		c11.4-10.5,18.7-23.1,21.1-38.5c0.1-0.6,0.3-1.1,0.4-1.7c0-39.8,0-79.6,0-119.4c0-39.1,0-78.1,0-117.2
		C-80.5,50.5-86.2,38.3-96,28.1z M-210.3,74.4c12.4,0.1,24.4,2.5,35.3,8.6c17.1,9.6,25.5,25,28.5,43.8c0.8,5.2,1,10.4,1,15.7
		c0,27,0,54,0,81c0,9.4-1.4,18.6-4.8,27.4c-8.2,21.5-24.5,32.7-46.6,36.5c-6,1-12,1.4-18.1,1.4c-27.2-0.1-54.4,0.1-81.7-0.1
		c-10.3,0-20.5-1.8-30-5.8c-19-8.1-29.5-22.8-33.6-42.6c-1.3-6.1-1.8-12.2-1.7-18.4c0-13.4,0-26.9,0-43.4
		c0.2-13.1-0.8-29.4,0.4-45.6c1.8-23,11.2-41.5,33.1-51.7c9.9-4.6,20.4-6.6,31.2-6.6C-268.2,74.3-239.2,74.2-210.3,74.4z"/>
	<path class="st0" d="M-338.9,121c-2.2,6.1-3.1,12.4-3.1,18.9c0,26.9,0,53.7,0,80.6c0,4,0.1,7.9,0.7,11.9
		c2.2,14.7,10.6,29.7,29.3,34c5.4,1.3,10.8,1.9,16.3,2c10.6,0.1,21.3,0.3,31.9,0.3c20.4-0.1,40.9,0.8,61.3-1
		c16.4-1.4,28.2-9.7,34-25.5c2.3-6.3,3.2-12.9,3.2-19.6c0-26.8,0-53.5,0-80.3c0-4-0.1-7.9-0.7-11.9c-2.3-14.8-10.7-29.9-30.1-34.1
		c-4.6-1-9.2-1.7-13.9-1.7c-14.6-0.1-29.2,0-43.8,0c0-0.1,0-0.2,0-0.4c-2.8,0-5.6-0.1-8.4,0c-14.2,0.3-28.5-0.5-42.7,1
		C-321.3,97.1-333.1,105.2-338.9,121z M-196.2,113.5c6.2,0.1,11.3,5.2,11.2,11.4c0,6.2-5.1,11.3-11.4,11.3c-6.3,0-11.3-5-11.4-11.3
		C-207.8,118.6-202.6,113.5-196.2,113.5z M-253.2,124.6c31.4,0.1,56.6,25.7,56.5,57.4c-0.1,31.3-25.7,56.7-56.9,56.6
		c-31.8-0.1-57.3-25.6-57-57.2C-310.4,149.6-285,124.5-253.2,124.6z"/>
	<path class="st0" d="M-253.6,218.3c20.3-0.1,36.7-16.4,36.7-36.8c0-20.3-16.3-36.7-36.7-36.8c-20.3-0.1-36.7,16.2-36.9,36.6
		C-290.6,201.7-274,218.4-253.6,218.3z"/>
</g>
<g>
	<path class="st1" d="M333,20.8C320.4,7.7,305.2,0.1,286.9,0.1C212.6,0,138.3,0,64,0.1c-31.2,0.1-59.2,25-63.3,56
		c-0.5,3.4-0.6,6.8-0.6,10.2C0.2,139,0.5,211.7,0,284.4c-0.2,34.1,27,62.2,56.2,65.7c0.3,0,0.6,0.2,1,0.3c78.9,0,157.7,0,236.6,0
		c13.4-2.1,25.2-7.4,35.3-16.7c11.4-10.5,18.7-23.1,21.1-38.5c0.1-0.6,0.3-1.1,0.4-1.7c0-78.9,0-157.7,0-236.6
		C348.4,43.1,342.7,31,333,20.8z M289.4,231.1c-0.1,1.7-0.7,2.8-2.1,3.8c-16.6,11.9-34.6,21-54,27.2c-2,0.6-2.9,0.2-4-1.5
		c-3.3-5-6.5-10.1-9.4-15.3c-1.2-2.1-1.2-3,1.3-3.9c4.7-1.7,9.1-3.8,13.4-6.3c1-0.6,3-0.6,2.5-2.5c-0.4-1.5-4.1-3-5.6-2.4
		c-5.7,2.4-11.4,4.7-17.4,6.4c-32.1,9.5-63.5,7.2-94.2-6c-1-0.4-2.1-1.5-3.2-0.9c-1.4,0.8-3.3,1.6-3.6,3.1c-0.3,1.5,1.8,1.7,2.9,2.3
		c4.4,2.5,9,4.7,13.7,6.4c1.6,0.6,2,1.3,1.1,2.9c-3.1,5.7-6.5,11.3-10.2,16.6c-0.8,1.2-1.6,1.5-3,1C98,256,79.8,246.8,63.1,234.8
		c-1.3-0.9-1.9-2-2-3.6c-0.2-6-0.9-12-0.7-17.3c-0.1-40.6,12-76.8,33.9-110c0.8-1.2,1.7-2,3-2.5c14-6.3,28.6-10.7,43.7-13.5
		c1.5-0.3,2.3,0.1,2.9,1.4c1.4,3,3,5.9,4.4,8.9c0.6,1.3,1.2,1.8,2.8,1.6c16.2-2.3,32.4-2.3,48.6,0c1.7,0.2,2.4-0.3,3-1.7
		c1.3-2.9,2.8-5.8,4.1-8.7c0.6-1.3,1.3-1.8,2.9-1.5c15.1,2.8,29.6,7.3,43.7,13.5c1.4,0.6,2.3,1.5,3.2,2.8
		c17.3,25.9,28.6,54.2,32.4,85.2C290.5,203.2,290.6,217.1,289.4,231.1z"/>
	<path class="st1" d="M214.3,160.8c-2.1,0.1-3.7,0.1-5.2,0.5c-8.7,2.4-13.6,8.4-15.5,16.8c-2.1,9.2,0.1,17.5,7.3,24
		c8,7.2,19.3,6.6,26.7-1.2c7.7-8,8.8-21.5,2.5-30.9C226.2,164.2,220.8,161,214.3,160.8z"/>
	<path class="st1" d="M142.6,161.6c-7.5-2.3-14.1-0.2-19.5,5.4c-8.8,9.1-8.7,25,0.2,34c8,8.1,20,8.1,27.9-0.1
		c4.5-4.7,6.4-10.5,6.6-16.9c0.2-2-0.2-4-0.6-5.8C155.2,170.1,150.7,164.1,142.6,161.6z"/>
</g>
</svg>
