<svg id="Layer_1" data-name="Layer 1" xmlns="http://www.w3.org/2000/svg" viewBox="0 0 350.55 350.41"><path d="M333,20.74C320.4,7.64,305.23.1,286.91.07Q240.86,0,194.81,0H155.76Q109.91,0,64,.07c-31.25,0-59.15,25-63.29,56A77.94,77.94,0,0,0,.16,66.3q0,49.15.1,98.31Q0,169.19,0,173.82q0,5,.27,9.86Q.29,234,0,284.38c-.23,34.14,27,62.2,56.21,65.71a5.24,5.24,0,0,1,1,.32H293.79c13.39-2.09,25.24-7.39,35.28-16.65,11.36-10.47,18.72-23.08,21.08-38.45.09-.56.27-1.1.4-1.66V57A65.35,65.35,0,0,0,333,20.74ZM218.68,67.07c12.38.08,24.38,2.5,35.32,8.61,17.14,9.57,25.5,25,28.53,43.77a99.44,99.44,0,0,1,1,15.71q0,40.49,0,81a76.61,76.61,0,0,1-4.77,27.44c-8.18,21.49-24.54,32.68-46.59,36.5a104.68,104.68,0,0,1-18.13,1.36c-27.22-.05-54.44.06-81.66-.06a77,77,0,0,1-30-5.84c-19-8.06-29.47-22.84-33.62-42.61A87.84,87.84,0,0,1,67,214.47C67,201,67,187.6,67,171c.25-13.11-.84-29.39.41-45.58,1.79-23,11.22-41.47,33.12-51.75a73.78,73.78,0,0,1,31.24-6.64Q175.23,66.82,218.68,67.07Z" fill="#010101"/><path d="M90.05,113.68a54.91,54.91,0,0,0-3.12,18.89q0,40.31,0,80.62a79.76,79.76,0,0,0,.74,11.87c2.23,14.75,10.63,29.67,29.29,34a75.8,75.8,0,0,0,16.29,2c10.63.12,21.26.34,31.89.29,20.43-.09,40.9.76,61.28-1,16.37-1.44,28.21-9.67,34-25.49a55.66,55.66,0,0,0,3.18-19.58q0-40.12,0-80.27a74.73,74.73,0,0,0-.74-11.87c-2.31-14.8-10.74-29.85-30.11-34.07a67.09,67.09,0,0,0-13.87-1.75c-14.6-.07-29.2,0-43.8,0V87c-2.8,0-5.61-.06-8.41,0-14.24.34-28.52-.5-42.72,1C107.64,89.77,95.84,97.85,90.05,113.68Zm142.7-7.52a11.35,11.35,0,1,1-11.57,11.44A11.37,11.37,0,0,1,232.75,106.16Zm-57,11.07A57,57,0,1,1,118.3,174,56.85,56.85,0,0,1,175.73,117.23Z" fill="#010101"/><path d="M175.36,211A36.76,36.76,0,1,0,138.51,174,36.7,36.7,0,0,0,175.36,211Z" fill="#010101"/></svg>