<svg id="Layer_1" data-name="Layer 1" xmlns="http://www.w3.org/2000/svg" viewBox="0 0 350.55 350.43"><path d="M333,20.76C320.4,7.65,305.23.11,286.91.08Q175.48-.07,64,.08C32.79.13,4.89,25.1.75,56.1A77.69,77.69,0,0,0,.16,66.31C.15,139,.5,211.7,0,284.4c-.23,34.13,27,62.19,56.21,65.71a5.24,5.24,0,0,1,1,.32H293.79c13.39-2.1,25.24-7.4,35.28-16.66,11.36-10.47,18.72-23.07,21.08-38.45.09-.56.27-1.1.4-1.65V57.05A65.32,65.32,0,0,0,333,20.76ZM289.43,231.11a4.72,4.72,0,0,1-2.15,3.82,195.31,195.31,0,0,1-54,27.25c-2,.65-2.89.18-4-1.45q-5-7.49-9.41-15.3c-1.17-2.07-1.18-3,1.32-3.92a79.74,79.74,0,0,0,13.42-6.32c1-.59,3-.57,2.54-2.48-.36-1.54-4.13-3-5.64-2.36a157.82,157.82,0,0,1-17.4,6.45c-32.13,9.5-63.5,7.16-94.2-6-1-.43-2.07-1.47-3.15-.88-1.42.76-3.32,1.56-3.63,3.12s1.8,1.69,2.87,2.29a94.07,94.07,0,0,0,13.72,6.42c1.59.59,2,1.28,1.12,2.93a166.43,166.43,0,0,1-10.24,16.61,2.23,2.23,0,0,1-3,1,194.15,194.15,0,0,1-54.53-27.46,4.23,4.23,0,0,1-2-3.58c-.25-6-.9-12-.71-17.33-.09-40.63,12-76.84,33.86-110a6.71,6.71,0,0,1,3-2.54,195.64,195.64,0,0,1,43.67-13.54,2.22,2.22,0,0,1,2.89,1.43c1.41,3,3,5.88,4.38,8.88.6,1.3,1.16,1.8,2.76,1.57a172.18,172.18,0,0,1,48.57,0c1.74.25,2.36-.32,3-1.71,1.31-2.91,2.78-5.76,4.13-8.66a2.25,2.25,0,0,1,2.87-1.52,197,197,0,0,1,43.68,13.5,7.13,7.13,0,0,1,3.17,2.78c17.28,25.93,28.56,54.15,32.42,85.18A203.16,203.16,0,0,1,289.43,231.11Z" fill="#020202"/><path d="M214.31,160.8a22.11,22.11,0,0,0-5.18.51c-8.65,2.41-13.63,8.38-15.55,16.81-2.09,9.22.11,17.52,7.27,24,8,7.18,19.26,6.56,26.74-1.18,7.73-8,8.85-21.52,2.47-30.93C226.17,164.22,220.78,161,214.31,160.8Z" fill="#020202"/><path d="M142.59,161.62c-7.48-2.26-14.11-.21-19.52,5.39-8.84,9.13-8.68,25,.24,34,8,8.09,20,8.06,27.87-.11,4.53-4.7,6.43-10.46,6.64-16.87a17.36,17.36,0,0,0-.61-5.84C155.24,170.13,150.74,164.09,142.59,161.62Z" fill="#020202"/></svg>