<svg id="Layer_1" data-name="Layer 1" xmlns="http://www.w3.org/2000/svg" viewBox="0 0 350.82 350.82"><path d="M294.74,351.5H58.13a5.24,5.24,0,0,0-1-.32C28,347.67.72,319.61,1,285.47c.5-72.69.15-145.39.16-218.08A77.74,77.74,0,0,1,1.7,57.17c4.14-31,32-56,63.29-56q111.44-.18,222.87,0c18.32,0,33.49,7.57,46.05,20.67a65.35,65.35,0,0,1,17.59,36.3V294.74c-.13.55-.31,1.1-.4,1.66-2.36,15.37-9.72,28-21.08,38.45C320,344.1,308.13,349.41,294.74,351.5ZM266.39,118.61a68,68,0,0,0,11.53-10.71,35.16,35.16,0,0,0,7.25-13.83c-4.27,2-8.4,3.92-12.63,5.56a109.33,109.33,0,0,1-13.05,4A5.57,5.57,0,0,1,253.7,102a47.39,47.39,0,0,0-72.44,9.26c-6.47,10-8.48,21-6.79,32.71.42,2.91-.14,4.45-3.41,3.9-.56-.1-1.14,0-1.71-.11-36.36-3.87-66.85-19.27-91.11-46.72-2.1-2.38-3-2-4.18.6A49.42,49.42,0,0,0,69.84,127c1.09,13,6.54,23.53,16.69,31.68.91.74,2.21,1.19,2.45,2.65-.72.65-1.55.41-2.3.37a48.4,48.4,0,0,1-16.46-4.21c-2.09-.89-3-.72-2.56,1.82.32,1.9.23,3.89.67,5.75,4.3,18.25,15.53,30.23,33.13,36.4,1.3.46,2.88.38,4.27,2.19-5.09,1.16-9.63,2.23-14.47,1.37-4-.71-4.65.06-3,3.54,7.76,16,20.15,25.8,38.12,27.92,1.22.14,3-.19,3.35,1.08s-1.4,1.86-2.37,2.55C111,251.82,92.73,258,72.48,258.1c-3,0-6-.43-9.54.39a115.92,115.92,0,0,0,16.57,8.63c23.17,10,47.26,12.89,72.23,9.75,21.55-2.7,41.8-9.38,59.15-22.35,38.56-28.83,58.28-67.52,57.92-116a4.58,4.58,0,0,1,1.9-4.12c1.28-.94,2.55-1.92,3.76-3a87.85,87.85,0,0,0,17.16-19C282.92,115.63,275,118.16,266.39,118.61Z"/></svg>